<svg xmlns="http://www.w3.org/2000/svg" viewBox="0 0 100 100">
        <path d="M50 10 C30 10 25 15 25 25 L25 35 L50 35 L50 40 L20 40 C10 40 10 50 10 60 C10 70 15 75 25 75 L30 75 L30 70 C30 60 35 55 45 55 L65 55 C75 55 80 50 80 40 C80 30 75 25 65 25 L60 25 L60 30 C60 40 55 45 45 45 L35 45 L35 40 L50 40 Z" fill="#306998"/>
        <path d="M50 90 C70 90 75 85 75 75 L75 65 L50 65 L50 60 L80 60 C90 60 90 50 90 40 C90 30 85 25 75 25 L70 25 L70 30 C70 40 65 45 55 45 L35 45 C25 45 20 50 20 60 C20 70 25 75 35 75 L40 75 L40 70 C40 60 45 55 55 55 L65 55 L65 60 L50 60 Z" fill="#FFE873"/>
    </svg>